<svg version="1.1" id="Layer_1" xmlns="http://www.w3.org/2000/svg" xmlns:xlink="http://www.w3.org/1999/xlink" x="0px" y="0px"
	 width="100%" viewBox="0 0 2240 846" enable-background="new 0 0 2240 846" xml:space="preserve">
<path fill="#000000" opacity="0.000000" stroke="none" 
	d="
M447.000000,847.000000 
	C439.970642,847.000000 432.941254,847.000000 425.455566,846.531372 
	C424.999237,706.141724 424.999237,566.220703 424.999237,426.000000 
	C283.260101,426.000000 142.130051,426.000000 1.000000,426.000000 
	C1.000000,418.303955 1.000000,410.607941 1.307010,402.283844 
	C2.057939,401.805054 2.501859,401.954315 3.237645,402.413544 
	C5.020494,402.815796 6.511471,402.988770 8.002461,402.988922 
	C145.168716,403.001221 282.334961,403.001404 419.501221,402.988464 
	C421.250916,402.988312 423.000580,402.809479 424.572815,402.723724 
	C424.572815,269.170715 424.572815,136.266800 424.572815,3.179643 
	C404.070740,2.373335 384.188507,4.135285 364.295502,6.859323 
	C338.069244,10.450600 312.459717,16.543173 287.494110,25.117371 
	C261.526123,34.035824 236.554108,45.262043 212.688690,59.000542 
	C186.086990,74.314217 161.493317,92.344116 138.830063,112.913261 
	C127.768990,122.952286 117.388092,133.856522 107.593903,145.145264 
	C96.250252,158.219940 85.171440,171.644348 75.248283,185.807175 
	C52.771046,217.887848 35.512524,252.760529 22.978691,289.883942 
	C12.830471,319.941559 5.712021,350.697510 2.912089,382.377014 
	C2.830473,383.300446 1.661809,384.127808 0.999997,385.000000 
	C1.000000,257.010071 1.000000,129.020172 1.000000,1.015129 
	C747.597717,1.015129 1494.195435,1.015129 2240.896484,1.015129 
	C2240.896484,282.908813 2240.896484,564.817688 2240.896484,847.000000 
	C1654.970703,847.000000 1068.941284,847.000000 482.116608,846.667725 
	C483.488892,845.878479 485.657043,845.424377 487.823883,844.963989 
	C503.505066,841.632324 519.340759,838.889893 534.830750,834.828674 
	C558.128479,828.720276 580.731567,820.507507 602.551025,810.158325 
	C626.333679,798.877930 649.481750,786.446289 670.533264,770.634094 
	C686.080688,758.956177 701.196960,746.599854 715.644287,733.589661 
	C731.703125,719.128479 745.718384,702.657715 759.048462,685.592407 
	C774.181702,666.218628 787.455078,645.673340 798.924194,623.997925 
	C812.568970,598.210815 823.444824,571.258118 831.434448,543.151062 
	C838.741333,517.446045 844.005737,491.384766 845.991211,464.705872 
	C846.407043,459.118408 846.703735,453.522095 847.051758,447.929626 
	C847.499084,440.741913 847.942627,433.553986 848.392273,426.293945 
	C714.069458,426.293945 580.674500,426.293945 447.000000,426.293945 
	C447.000000,566.725098 447.000000,706.862549 447.000000,847.000000 
M2107.500000,362.000000 
	C2130.992920,361.999817 2154.486084,362.016083 2177.979004,361.989349 
	C2184.989258,361.981354 2186.963867,360.042999 2186.988037,353.157806 
	C2187.030518,341.161499 2187.007324,329.164917 2186.997559,317.168457 
	C2186.990723,308.566559 2185.429443,307.004456 2176.806152,307.002747 
	C2143.482666,306.996094 2110.158691,306.918060 2076.836182,307.093658 
	C2072.188965,307.118103 2070.801025,305.663300 2070.908447,301.100708 
	C2071.182617,289.443970 2071.209473,277.770844 2070.899658,266.115875 
	C2070.771240,261.285248 2072.310303,259.871979 2077.120117,259.902161 
	C2107.776611,260.094452 2138.434570,260.014557 2169.092285,259.987946 
	C2176.034424,259.981934 2177.967529,258.019775 2177.989502,251.044601 
	C2178.026855,239.048264 2178.008301,227.051697 2177.997070,215.055252 
	C2177.989258,206.534592 2176.421631,205.004074 2167.692871,205.002335 
	C2137.535156,204.996323 2107.376709,204.912491 2077.219971,205.091324 
	C2072.544922,205.119049 2070.753418,203.951447 2070.894287,198.983704 
	C2071.225098,187.329865 2071.227295,175.653748 2070.893555,164.000092 
	C2070.750244,159.010178 2072.583496,157.886795 2077.236328,157.910263 
	C2110.558838,158.078415 2143.882812,158.005981 2177.206299,157.995575 
	C2185.242432,157.993073 2186.981445,156.290985 2186.994629,148.430984 
	C2187.014648,136.434570 2187.016846,124.438057 2186.993896,112.441643 
	C2186.979248,104.805832 2185.199707,103.008530 2177.578857,103.006821 
	C2122.928223,102.994606 2068.277832,102.995605 2013.627197,103.005318 
	C2005.736938,103.006721 2004.005249,104.760895 2004.004517,112.735527 
	C2003.997192,192.545303 2003.997437,272.355072 2004.004028,352.164856 
	C2004.004639,360.365570 2005.672729,361.994568 2014.027344,361.996765 
	C2044.851562,362.004883 2075.675781,361.999969 2107.500000,362.000000 
M1764.500000,103.000000 
	C1717.013916,103.000183 1669.527954,102.991592 1622.041870,103.010124 
	C1615.019287,103.012863 1613.014038,104.952469 1613.012451,111.821327 
	C1612.994141,192.297424 1612.993896,272.773499 1613.013184,353.249603 
	C1613.014771,359.924255 1615.030396,361.981079 1621.612793,361.984100 
	C1676.596436,362.009460 1731.580078,362.010590 1786.563721,361.981079 
	C1792.881836,361.977692 1794.949463,359.885529 1794.980591,353.572876 
	C1795.040405,341.410126 1795.007690,329.246887 1794.997192,317.083832 
	C1794.989868,308.542847 1793.423096,307.003998 1784.721558,307.002411 
	C1751.897949,306.996460 1719.074097,306.921722 1686.251343,307.088745 
	C1681.618530,307.112305 1679.748047,306.025726 1679.892700,301.015015 
	C1680.229370,289.361542 1680.223267,277.685455 1679.895142,266.031494 
	C1679.755859,261.084198 1681.509155,259.879089 1686.204834,259.907532 
	C1716.194824,260.089233 1746.186401,260.006287 1776.177490,259.995728 
	C1784.244385,259.992889 1785.980591,258.306000 1785.994507,250.459839 
	C1786.015503,238.630066 1786.009399,226.800201 1785.996948,214.970398 
	C1785.988159,206.650116 1784.365845,205.006729 1776.107910,205.003983 
	C1745.950195,204.993988 1715.792114,204.923920 1685.635254,205.083893 
	C1681.272583,205.107025 1679.809937,203.819183 1679.911377,199.399658 
	C1680.175415,187.909149 1679.995728,176.408539 1680.001587,164.911957 
	C1680.005005,158.013885 1680.012085,158.002823 1686.820435,158.001907 
	C1719.977295,157.997406 1753.134033,158.015396 1786.290894,157.985413 
	C1792.933838,157.979416 1794.960205,155.952057 1794.984619,149.345886 
	C1795.032104,136.516541 1795.057617,123.686470 1794.967773,110.857574 
	C1794.928101,105.187828 1792.748779,103.098503 1786.993408,103.025162 
	C1779.829956,102.933876 1772.664551,103.001183 1764.500000,103.000000 
M515.519775,236.074783 
	C515.679016,237.559601 516.004944,239.048111 515.972107,240.528671 
	C515.594116,257.570404 519.076538,273.934540 524.827454,289.847321 
	C534.463623,316.510284 551.992249,336.255890 577.045471,349.586731 
	C600.857300,362.257019 626.549927,363.895416 652.424500,361.597870 
	C679.808777,359.166260 703.453613,347.880188 722.459717,327.227875 
	C736.005371,312.508942 743.898438,295.363464 747.748352,276.042633 
	C748.341980,273.063629 747.455627,271.142944 744.050781,271.015839 
	C726.474243,270.359619 708.896912,269.719147 691.324280,268.969879 
	C687.373718,268.801422 685.618958,270.577728 684.975647,274.336029 
	C683.478577,283.082550 678.737610,290.295441 672.303101,295.904877 
	C658.933655,307.560059 643.110718,311.080780 625.730286,307.913818 
	C614.248108,305.821625 603.943115,300.943970 596.352478,292.213318 
	C586.905945,281.347870 581.374939,268.340546 579.461975,253.913223 
	C576.627014,232.532623 576.900696,211.499695 585.352356,191.151031 
	C593.321655,171.963608 607.097717,160.296844 627.795227,156.749161 
	C651.951355,152.608658 679.639160,164.421265 685.041992,192.234131 
	C685.668396,195.458847 687.384888,197.059082 690.891479,197.039490 
	C708.385864,196.941681 725.881104,196.967896 743.375916,197.008636 
	C747.197876,197.017532 748.485352,195.238419 747.684326,191.639008 
	C746.419861,185.957428 745.380371,180.216782 743.882996,174.597794 
	C739.544067,158.315659 731.124817,144.130066 719.284485,132.428452 
	C706.551575,119.844810 691.086121,111.083862 673.525513,107.189171 
	C660.956421,104.401512 648.090027,102.527397 635.256409,101.527390 
	C628.147217,100.973434 620.822693,102.979683 613.612732,103.960541 
	C586.516296,107.646744 563.546021,119.348366 545.538940,140.019760 
	C521.764587,167.311798 515.321716,200.273102 515.519775,236.074783 
M1236.000000,189.500000 
	C1236.000122,243.823547 1235.995728,298.147095 1236.006470,352.470642 
	C1236.007690,358.702606 1236.294312,358.985016 1242.494751,358.992950 
	C1258.325317,359.013214 1274.155762,359.007751 1289.986328,358.996185 
	C1296.849731,358.991180 1296.994263,358.849792 1296.996338,351.989807 
	C1297.005005,322.994965 1296.995239,294.000092 1297.003418,265.005249 
	C1297.005493,257.660004 1297.658325,257.005707 1304.992432,257.003479 
	C1333.654053,256.994781 1362.315918,256.926910 1390.976807,257.073517 
	C1395.531982,257.096802 1397.163086,255.581924 1397.076050,250.997009 
	C1396.848389,239.003479 1397.009155,227.002716 1396.996338,215.004868 
	C1396.989136,208.149094 1396.850464,208.005951 1389.980957,208.003799 
	C1361.319336,207.994781 1332.657837,208.012512 1303.996216,207.988861 
	C1297.977173,207.983887 1297.027466,207.021500 1297.010864,200.998077 
	C1296.976562,188.500381 1296.995483,176.002533 1297.001587,163.504745 
	C1297.005371,155.499466 1297.498291,155.002930 1305.492798,155.001785 
	C1337.653809,154.997192 1369.814941,154.934265 1401.975342,155.072952 
	C1406.528442,155.092590 1408.161377,153.585083 1408.076050,148.998596 
	C1407.849365,136.838318 1408.015381,124.670982 1407.993408,112.506516 
	C1407.982178,106.292503 1407.706543,106.007996 1401.482422,106.006691 
	C1348.491821,105.995644 1295.501221,105.995598 1242.510620,106.006737 
	C1236.291748,106.008041 1236.010742,106.292091 1236.006836,112.513481 
	C1235.990845,137.842316 1236.000122,163.171158 1236.000000,189.500000 
M1021.000000,283.500000 
	C1020.999878,226.509521 1021.004150,169.519058 1020.993469,112.528580 
	C1020.992310,106.296730 1020.706299,106.014740 1014.504395,106.007118 
	C998.340454,105.987267 982.175049,106.120773 966.013489,105.924309 
	C961.443481,105.868752 959.923950,107.446564 959.929565,112.011871 
	C960.028137,192.331573 960.027832,272.651428 959.930176,352.971130 
	C959.924622,357.517365 961.407288,359.132690 965.996460,359.076355 
	C982.157959,358.877869 998.323364,359.012573 1014.487305,358.993073 
	C1020.708435,358.985565 1020.988403,358.708618 1020.993042,352.488556 
	C1021.009949,329.825714 1020.999878,307.162842 1021.000000,283.500000 
z"/>
<path fill="#00AEEF" opacity="1.000000" stroke="none" 
	d="
M1.000000,426.468658 
	C142.130051,426.000000 283.260101,426.000000 424.999237,426.000000 
	C424.999237,566.220703 424.999237,706.141724 424.999634,846.531372 
	C405.979095,847.000000 386.958221,847.000000 367.783264,846.646362 
	C364.527222,845.531677 361.464020,844.489197 358.316986,844.055298 
	C337.996765,841.253967 318.191101,836.258972 298.622772,830.246155 
	C266.844025,820.481201 236.745316,806.968933 208.105621,790.069214 
	C182.850586,775.166687 159.249039,757.993530 137.815002,738.073975 
	C121.360580,722.782043 105.944771,706.437561 91.960785,688.701782 
	C75.263428,667.524658 60.591534,645.107971 48.143848,621.276062 
	C35.658463,597.371887 25.474138,572.435486 18.078915,546.467712 
	C14.619716,534.320923 11.505631,522.030579 9.123218,509.634644 
	C6.541333,496.200836 5.020267,482.564148 2.924001,469.033356 
	C2.806420,468.274445 1.664935,467.674133 1.000010,467.000000 
	C1.000000,453.645782 1.000000,440.291534 1.000000,426.468658 
z"/>
<path fill="#2E3192" opacity="1.000000" stroke='none' 
	d="
M0.999997,385.463196 
	C1.661809,384.127808 2.830473,383.300446 2.912089,382.377014 
	C5.712021,350.697510 12.830471,319.941559 22.978691,289.883942 
	C35.512524,252.760529 52.771046,217.887848 75.248283,185.807175 
	C85.171440,171.644348 96.250252,158.219940 107.593903,145.145264 
	C117.388092,133.856522 127.768990,122.952286 138.830063,112.913261 
	C161.493317,92.344116 186.086990,74.314217 212.688690,59.000542 
	C236.554108,45.262043 261.526123,34.035824 287.494110,25.117371 
	C312.459717,16.543173 338.069244,10.450600 364.295502,6.859323 
	C384.188507,4.135285 404.070740,2.373335 424.572815,3.179643 
	C424.572815,136.266800 424.572815,269.170715 424.572815,402.723724 
	C423.000580,402.809479 421.250916,402.988312 419.501221,402.988464 
	C282.334961,403.001404 145.168716,403.001221 8.002461,402.988922 
	C6.511471,402.988770 5.020494,402.815796 3.366302,402.117645 
	C2.468729,400.341187 1.734365,399.170593 1.000001,398.000000 
	C1.000000,393.975464 1.000000,389.950897 0.999997,385.463196 
z"/>
<path fill="#8DC6E7" opacity="1.000000" stroke="none" 
	d="
M447.468658,847.000000 
	C447.000000,706.862549 447.000000,566.725098 447.000000,426.293945 
	C580.674500,426.293945 714.069458,426.293945 848.392273,426.293945 
	C847.942627,433.553986 847.499084,440.741913 847.051758,447.929626 
	C846.703735,453.522095 846.407043,459.118408 845.991211,464.705872 
	C844.005737,491.384766 838.741333,517.446045 831.434448,543.151062 
	C823.444824,571.258118 812.568970,598.210815 798.924194,623.997925 
	C787.455078,645.673340 774.181702,666.218628 759.048462,685.592407 
	C745.718384,702.657715 731.703125,719.128479 715.644287,733.589661 
	C701.196960,746.599854 686.080688,758.956177 670.533264,770.634094 
	C649.481750,786.446289 626.333679,798.877930 602.551025,810.158325 
	C580.731567,820.507507 558.128479,828.720276 534.830750,834.828674 
	C519.340759,838.889893 503.505066,841.632324 487.823883,844.963989 
	C485.657043,845.424377 483.488892,845.878479 481.660645,846.667725 
	C470.645782,847.000000 459.291534,847.000000 447.468658,847.000000 
z"/>
<path fill="#000000" opacity="0.000000" stroke="none" 
	d="
M1.000010,467.468628 
	C1.664935,467.674133 2.806420,468.274445 2.924001,469.033356 
	C5.020267,482.564148 6.541333,496.200836 9.123218,509.634644 
	C11.505631,522.030579 14.619716,534.320923 18.078915,546.467712 
	C25.474138,572.435486 35.658463,597.371887 48.143848,621.276062 
	C60.591534,645.107971 75.263428,667.524658 91.960785,688.701782 
	C105.944771,706.437561 121.360580,722.782043 137.815002,738.073975 
	C159.249039,757.993530 182.850586,775.166687 208.105621,790.069214 
	C236.745316,806.968933 266.844025,820.481201 298.622772,830.246155 
	C318.191101,836.258972 337.996765,841.253967 358.316986,844.055298 
	C361.464020,844.489197 364.527222,845.531677 367.314575,846.646362 
	C245.071548,847.000000 123.143112,847.000000 1.000000,847.000000 
	C1.000000,720.645874 1.000000,594.291565 1.000010,467.468628 
z"/>
<path fill="#2E3192" opacity="0.000000" stroke="none" 
	d="
M1.000001,398.399994 
	C1.734365,399.170593 2.468729,400.341187 3.074435,401.807678 
	C2.501859,401.954315 2.057939,401.805054 1.307010,401.827881 
	C1.000000,400.933319 1.000000,399.866669 1.000001,398.399994 
z"/>
<path fill="#fff" opacity="1.000000" stroke="none" 
	d="
M2107.000000,362.000000 
	C2075.675781,361.999969 2044.851562,362.004883 2014.027344,361.996765 
	C2005.672729,361.994568 2004.004639,360.365570 2004.004028,352.164856 
	C2003.997437,272.355072 2003.997192,192.545303 2004.004517,112.735527 
	C2004.005249,104.760895 2005.736938,103.006721 2013.627197,103.005318 
	C2068.277832,102.995605 2122.928223,102.994606 2177.578857,103.006821 
	C2185.199707,103.008530 2186.979248,104.805832 2186.993896,112.441643 
	C2187.016846,124.438057 2187.014648,136.434570 2186.994629,148.430984 
	C2186.981445,156.290985 2185.242432,157.993073 2177.206299,157.995575 
	C2143.882812,158.005981 2110.558838,158.078415 2077.236328,157.910263 
	C2072.583496,157.886795 2070.750244,159.010178 2070.893555,164.000092 
	C2071.227295,175.653748 2071.225098,187.329865 2070.894287,198.983704 
	C2070.753418,203.951447 2072.544922,205.119049 2077.219971,205.091324 
	C2107.376709,204.912491 2137.535156,204.996323 2167.692871,205.002335 
	C2176.421631,205.004074 2177.989258,206.534592 2177.997070,215.055252 
	C2178.008301,227.051697 2178.026855,239.048264 2177.989502,251.044601 
	C2177.967529,258.019775 2176.034424,259.981934 2169.092285,259.987946 
	C2138.434570,260.014557 2107.776611,260.094452 2077.120117,259.902161 
	C2072.310303,259.871979 2070.771240,261.285248 2070.899658,266.115875 
	C2071.209473,277.770844 2071.182617,289.443970 2070.908447,301.100708 
	C2070.801025,305.663300 2072.188965,307.118103 2076.836182,307.093658 
	C2110.158691,306.918060 2143.482666,306.996094 2176.806152,307.002747 
	C2185.429443,307.004456 2186.990723,308.566559 2186.997559,317.168457 
	C2187.007324,329.164917 2187.030518,341.161499 2186.988037,353.157806 
	C2186.963867,360.042999 2184.989258,361.981354 2177.979004,361.989349 
	C2154.486084,362.016083 2130.992920,361.999817 2107.000000,362.000000 
z"/>
<path fill="#fff" opacity="1.000000" stroke="none" 
	d="
M1765.000000,103.000000 
	C1772.664551,103.001183 1779.829956,102.933876 1786.993408,103.025162 
	C1792.748779,103.098503 1794.928101,105.187828 1794.967773,110.857574 
	C1795.057617,123.686470 1795.032104,136.516541 1794.984619,149.345886 
	C1794.960205,155.952057 1792.933838,157.979416 1786.290894,157.985413 
	C1753.134033,158.015396 1719.977295,157.997406 1686.820435,158.001907 
	C1680.012085,158.002823 1680.005005,158.013885 1680.001587,164.911957 
	C1679.995728,176.408539 1680.175415,187.909149 1679.911377,199.399658 
	C1679.809937,203.819183 1681.272583,205.107025 1685.635254,205.083893 
	C1715.792114,204.923920 1745.950195,204.993988 1776.107910,205.003983 
	C1784.365845,205.006729 1785.988159,206.650116 1785.996948,214.970398 
	C1786.009399,226.800201 1786.015503,238.630066 1785.994507,250.459839 
	C1785.980591,258.306000 1784.244385,259.992889 1776.177490,259.995728 
	C1746.186401,260.006287 1716.194824,260.089233 1686.204834,259.907532 
	C1681.509155,259.879089 1679.755859,261.084198 1679.895142,266.031494 
	C1680.223267,277.685455 1680.229370,289.361542 1679.892700,301.015015 
	C1679.748047,306.025726 1681.618530,307.112305 1686.251343,307.088745 
	C1719.074097,306.921722 1751.897949,306.996460 1784.721558,307.002411 
	C1793.423096,307.003998 1794.989868,308.542847 1794.997192,317.083832 
	C1795.007690,329.246887 1795.040405,341.410126 1794.980591,353.572876 
	C1794.949463,359.885529 1792.881836,361.977692 1786.563721,361.981079 
	C1731.580078,362.010590 1676.596436,362.009460 1621.612793,361.984100 
	C1615.030396,361.981079 1613.014771,359.924255 1613.013184,353.249603 
	C1612.993896,272.773499 1612.994141,192.297424 1613.012451,111.821327 
	C1613.014038,104.952469 1615.019287,103.012863 1622.041870,103.010124 
	C1669.527954,102.991592 1717.013916,103.000183 1765.000000,103.000000 
z"/>
<path fill="#fff" opacity="1.000000" stroke="none" 
	d="
M515.400391,235.634094 
	C515.321716,200.273102 521.764587,167.311798 545.538940,140.019760 
	C563.546021,119.348366 586.516296,107.646744 613.612732,103.960541 
	C620.822693,102.979683 628.147217,100.973434 635.256409,101.527390 
	C648.090027,102.527397 660.956421,104.401512 673.525513,107.189171 
	C691.086121,111.083862 706.551575,119.844810 719.284485,132.428452 
	C731.124817,144.130066 739.544067,158.315659 743.882996,174.597794 
	C745.380371,180.216782 746.419861,185.957428 747.684326,191.639008 
	C748.485352,195.238419 747.197876,197.017532 743.375916,197.008636 
	C725.881104,196.967896 708.385864,196.941681 690.891479,197.039490 
	C687.384888,197.059082 685.668396,195.458847 685.041992,192.234131 
	C679.639160,164.421265 651.951355,152.608658 627.795227,156.749161 
	C607.097717,160.296844 593.321655,171.963608 585.352356,191.151031 
	C576.900696,211.499695 576.627014,232.532623 579.461975,253.913223 
	C581.374939,268.340546 586.905945,281.347870 596.352478,292.213318 
	C603.943115,300.943970 614.248108,305.821625 625.730286,307.913818 
	C643.110718,311.080780 658.933655,307.560059 672.303101,295.904877 
	C678.737610,290.295441 683.478577,283.082550 684.975647,274.336029 
	C685.618958,270.577728 687.373718,268.801422 691.324280,268.969879 
	C708.896912,269.719147 726.474243,270.359619 744.050781,271.015839 
	C747.455627,271.142944 748.341980,273.063629 747.748352,276.042633 
	C743.898438,295.363464 736.005371,312.508942 722.459717,327.227875 
	C703.453613,347.880188 679.808777,359.166260 652.424500,361.597870 
	C626.549927,363.895416 600.857300,362.257019 577.045471,349.586731 
	C551.992249,336.255890 534.463623,316.510284 524.827454,289.847321 
	C519.076538,273.934540 515.594116,257.570404 515.972107,240.528671 
	C516.004944,239.048111 515.679016,237.559601 515.400391,235.634094 
z"/>
<path fill="#fff" opacity="1.000000" stroke="none" 
	d="
M1236.000000,189.000000 
	C1236.000122,163.171158 1235.990845,137.842316 1236.006836,112.513481 
	C1236.010742,106.292091 1236.291748,106.008041 1242.510620,106.006737 
	C1295.501221,105.995598 1348.491821,105.995644 1401.482422,106.006691 
	C1407.706543,106.007996 1407.982178,106.292503 1407.993408,112.506516 
	C1408.015381,124.670982 1407.849365,136.838318 1408.076050,148.998596 
	C1408.161377,153.585083 1406.528442,155.092590 1401.975342,155.072952 
	C1369.814941,154.934265 1337.653809,154.997192 1305.492798,155.001785 
	C1297.498291,155.002930 1297.005371,155.499466 1297.001587,163.504745 
	C1296.995483,176.002533 1296.976562,188.500381 1297.010864,200.998077 
	C1297.027466,207.021500 1297.977173,207.983887 1303.996216,207.988861 
	C1332.657837,208.012512 1361.319336,207.994781 1389.980957,208.003799 
	C1396.850464,208.005951 1396.989136,208.149094 1396.996338,215.004868 
	C1397.009155,227.002716 1396.848389,239.003479 1397.076050,250.997009 
	C1397.163086,255.581924 1395.531982,257.096802 1390.976807,257.073517 
	C1362.315918,256.926910 1333.654053,256.994781 1304.992432,257.003479 
	C1297.658325,257.005707 1297.005493,257.660004 1297.003418,265.005249 
	C1296.995239,294.000092 1297.005005,322.994965 1296.996338,351.989807 
	C1296.994263,358.849792 1296.849731,358.991180 1289.986328,358.996185 
	C1274.155762,359.007751 1258.325317,359.013214 1242.494751,358.992950 
	C1236.294312,358.985016 1236.007690,358.702606 1236.006470,352.470642 
	C1235.995728,298.147095 1236.000122,243.823547 1236.000000,189.000000 
z"/>
<path fill="#fff" opacity="1.000000" stroke="none" 
	d="
M1021.000000,284.000000 
	C1020.999878,307.162842 1021.009949,329.825714 1020.993042,352.488556 
	C1020.988403,358.708618 1020.708435,358.985565 1014.487305,358.993073 
	C998.323364,359.012573 982.157959,358.877869 965.996460,359.076355 
	C961.407288,359.132690 959.924622,357.517365 959.930176,352.971130 
	C960.027832,272.651428 960.028137,192.331573 959.929565,112.011871 
	C959.923950,107.446564 961.443481,105.868752 966.013489,105.924309 
	C982.175049,106.120773 998.340454,105.987267 1014.504395,106.007118 
	C1020.706299,106.014740 1020.992310,106.296730 1020.993469,112.528580 
	C1021.004150,169.519058 1020.999878,226.509521 1021.000000,284.000000 
z"/>
</svg>